<svg width="20" height="16" viewBox="0 0 20 16" fill="none" xmlns="http://www.w3.org/2000/svg">
<path d="M18 1.99951H10L8 -0.000488281H2C0.9 -0.000488281 0.00999999 0.899512 0.00999999 1.99951L0 13.9995C0 15.0995 0.9 15.9995 2 15.9995H18C19.1 15.9995 20 15.0995 20 13.9995V3.99951C20 2.89951 19.1 1.99951 18 1.99951ZM13 4.99951C14.1 4.99951 15 5.89951 15 6.99951C15 8.09951 14.1 8.99951 13 8.99951C11.9 8.99951 11 8.09951 11 6.99951C11 5.89951 11.9 4.99951 13 4.99951ZM17 12.9995H9V11.9995C9 10.6695 11.67 9.99951 13 9.99951C14.33 9.99951 17 10.6695 17 11.9995V12.9995Z" fill="white"/>
</svg>
