<svg width="24" height="24" viewBox="0 0 24 24" fill="none" xmlns="http://www.w3.org/2000/svg">
<path fill-rule="evenodd" clip-rule="evenodd" d="M19.9594 18.4908C20.3056 18.1647 20.5 17.7225 20.5 17.2614V9.34641C20.5 8.88531 20.3056 8.4431 19.9594 8.11706C19.6133 7.79101 19.1439 7.60784 18.6544 7.60784H16.6631L14.8175 5H9.18252L7.33689 7.60784H5.34563C4.85614 7.60784 4.3867 7.79101 4.04057 8.11706C3.69445 8.4431 3.5 8.88531 3.5 9.34641V17.2614C3.5 17.7225 3.69445 18.1647 4.04057 18.4908C4.3867 18.8168 4.85614 19 5.34563 19H18.6544C19.1439 19 19.6133 18.8168 19.9594 18.4908ZM9.5 13C9.5 11.6193 10.6193 10.5 12 10.5C13.3807 10.5 14.5 11.6193 14.5 13C14.5 14.3807 13.3807 15.5 12 15.5C10.6193 15.5 9.5 14.3807 9.5 13ZM12 9.5C10.067 9.5 8.5 11.067 8.5 13C8.5 14.933 10.067 16.5 12 16.5C13.933 16.5 15.5 14.933 15.5 13C15.5 11.067 13.933 9.5 12 9.5Z" fill="black"/>
</svg>
