<svg width="28" height="28" viewBox="0 0 28 28" fill="none" xmlns="http://www.w3.org/2000/svg">
<path d="M9.33337 21H24.5H9.33337Z" fill="#2DABFA"/>
<path d="M9.33337 14H24.5M9.33337 7H24.5M9.33337 21H24.5" stroke="#2DABFA" stroke-width="2" stroke-miterlimit="10" stroke-linecap="round"/>
<path d="M3.5 12.25C3.03587 12.25 2.59075 12.4344 2.26256 12.7626C1.93437 13.0908 1.75 13.5359 1.75 14C1.75 14.4641 1.93437 14.9092 2.26256 15.2374C2.59075 15.5656 3.03587 15.75 3.5 15.75C3.96413 15.75 4.40925 15.5656 4.73744 15.2374C5.06563 14.9092 5.25 14.4641 5.25 14C5.25 13.5359 5.06563 13.0908 4.73744 12.7626C4.40925 12.4344 3.96413 12.25 3.5 12.25ZM3.5 19.25C3.03587 19.25 2.59075 19.4344 2.26256 19.7626C1.93437 20.0908 1.75 20.5359 1.75 21C1.75 21.4641 1.93437 21.9092 2.26256 22.2374C2.59075 22.5656 3.03587 22.75 3.5 22.75C3.96413 22.75 4.40925 22.5656 4.73744 22.2374C5.06563 21.9092 5.25 21.4641 5.25 21C5.25 20.5359 5.06563 20.0908 4.73744 19.7626C4.40925 19.4344 3.96413 19.25 3.5 19.25ZM3.5 5.25C3.03587 5.25 2.59075 5.43437 2.26256 5.76256C1.93437 6.09075 1.75 6.53587 1.75 7C1.75 7.46413 1.93437 7.90925 2.26256 8.23744C2.59075 8.56563 3.03587 8.75 3.5 8.75C3.96413 8.75 4.40925 8.56563 4.73744 8.23744C5.06563 7.90925 5.25 7.46413 5.25 7C5.25 6.53587 5.06563 6.09075 4.73744 5.76256C4.40925 5.43437 3.96413 5.25 3.5 5.25Z" fill="#2DABFA"/>
</svg>
