<svg width="41" height="41" viewBox="0 0 41 41" fill="none" xmlns="http://www.w3.org/2000/svg">
<path d="M40.9999 13.6065V32.1407C40.9999 32.903 40.7993 33.6251 40.4784 34.2669C40.4784 34.3071 40.4382 34.3071 40.4382 34.3472C40.3981 34.3873 40.3981 34.4274 40.358 34.4675C40.3179 34.5077 40.2778 34.5879 40.2377 34.628C40.1975 34.7082 40.1574 34.7885 40.0772 34.8286C40.0371 34.8687 39.997 34.9088 39.9568 34.9489C39.9167 34.9891 39.8766 35.0292 39.8365 35.0693C39.8365 35.0693 39.8365 35.1094 39.7964 35.1094C39.7563 35.1495 39.7563 35.1896 39.7161 35.1896C39.676 35.2298 39.676 35.2699 39.6359 35.2699C39.5958 35.31 39.5557 35.3501 39.5156 35.3902C39.4353 35.4303 39.3952 35.5106 39.315 35.5507C39.2347 35.5908 39.1946 35.6309 39.1144 35.7112C38.994 35.8315 38.8336 35.9118 38.6731 35.992C38.312 36.1926 37.951 36.3531 37.5498 36.4333C37.2289 36.5135 36.8678 36.5536 36.5067 36.5536C35.7445 36.5536 35.0224 36.3531 34.3805 36.0321C32.9764 35.2699 32.0537 33.8257 32.0537 32.1407V13.6065C32.0537 13.1652 31.8531 12.8844 31.6525 12.6838C31.4921 12.5233 31.1711 12.3227 30.7298 12.3227L10.5107 12.3629V7.38831C10.5107 6.14467 10.0293 5.0615 9.18682 4.25915C8.86588 3.93821 8.54494 3.69751 8.14377 3.49692L30.77 3.41669H30.8101C33.5381 3.41669 36.0655 4.45974 37.9911 6.38537C39.9167 8.31101 40.9999 10.8785 40.9999 13.6065Z" fill="#2DABFA"/>
<path d="M32.455 36.5937L10.1898 36.6339H10.1497C7.42171 36.6339 4.89432 35.5908 2.96869 33.6652C1.04305 31.7395 0 29.172 0 26.444V7.94993C0 7.1877 0.200587 6.46559 0.561643 5.82371C0.60176 5.66324 0.681995 5.54289 0.76223 5.42254C1.48434 4.37949 2.60763 3.65737 3.9315 3.4969C4.09197 3.45679 4.29256 3.45679 4.45303 3.45679C5.37573 3.45679 6.21819 3.73761 6.90019 4.21902C7.74265 4.78066 8.38453 5.62313 8.70547 6.62606C8.82582 7.02723 8.90606 7.46852 8.90606 7.90982V26.444C8.90606 26.8853 9.10664 27.1662 9.30723 27.3667C9.4677 27.5272 9.78864 27.7278 10.2299 27.7278L30.5293 27.6877V32.8628C30.4491 34.4675 31.2514 35.8315 32.455 36.5937Z" fill="#1168DC"/>
</svg>
