<svg width="24" height="24" viewBox="0 0 24 24" fill="none" xmlns="http://www.w3.org/2000/svg">
<path d="M18.3992 16.8085C18.3992 17.2841 18.4055 17.766 18.3929 18.2416C18.3929 18.3792 18.4305 18.4043 18.5556 18.398C18.7309 18.3855 18.9123 18.398 19.0876 18.3918C19.1689 18.3918 19.1939 18.4168 19.1877 18.4981C19.1814 18.9612 19.1814 19.4243 19.1877 19.8874C19.1877 19.9687 19.1689 19.9938 19.0813 19.9938C18.3554 19.9875 17.6232 19.9875 16.8973 19.9938C16.8035 19.9938 16.7847 19.9625 16.7847 19.8811C16.7909 19.4368 16.7784 18.9988 16.7909 18.5545C16.7909 18.423 16.7534 18.3918 16.6282 18.398C16.2027 18.4043 15.7772 18.4043 15.3454 18.398C15.2202 18.398 15.1764 18.423 15.1827 18.5545C15.1889 18.9925 15.1827 19.4306 15.1889 19.8686C15.1889 19.9687 15.1702 20 15.0638 20C14.0813 19.9938 13.0988 19.9938 12.1164 20C12.01 20 11.9912 19.9687 11.9912 19.8686C11.9975 19.3805 11.9975 18.8924 11.9975 18.4043L11.9912 18.4105C12.0538 18.3542 12.1351 18.3605 12.2102 18.3605C12.5857 18.3605 12.9549 18.3605 13.3304 18.3605C13.5181 18.3605 13.5306 18.348 13.5369 18.154C13.5369 17.791 13.5369 17.4281 13.5369 17.0651C13.5369 16.99 13.5306 16.9087 13.5619 16.8336C13.5744 16.8148 13.5869 16.8023 13.6057 16.7898C13.6808 16.7585 13.7559 16.7647 13.8373 16.7647C15.2766 16.7647 16.7096 16.7647 18.1489 16.7647C18.224 16.7647 18.3053 16.7585 18.3804 16.796C18.3867 16.796 18.3929 16.8023 18.3992 16.8085Z" fill="#0F0B47"/>
<path d="M12.8173 11.1765C12.8674 11.2077 12.9299 11.1952 12.9863 11.1952C14.7322 11.1952 16.4844 11.1952 18.2303 11.1952C18.368 11.1952 18.4055 11.2265 18.4055 11.3642C18.3992 12.6408 18.3992 13.9111 18.3992 15.1877C18.393 15.194 18.3867 15.2002 18.3742 15.2065C18.3492 15.219 18.3242 15.2315 18.2991 15.2315C17.8423 15.244 17.3855 15.2378 16.9287 15.2315C16.8223 15.2315 16.766 15.1689 16.7597 15.0625C16.7534 15 16.7534 14.9374 16.7534 14.8748C16.7534 14.2741 16.7534 13.6671 16.7534 13.0663C16.7534 12.8786 16.7409 12.8661 16.5469 12.8661C16.1777 12.8661 15.8085 12.8661 15.4393 12.8661C15.2453 12.8661 15.2328 12.8786 15.2328 13.0663C15.2328 13.4418 15.2328 13.8172 15.2328 14.1927C15.2328 14.418 15.1953 14.4555 14.97 14.4555C14.582 14.4555 14.1878 14.4555 13.7998 14.4555C13.7372 14.4555 13.6746 14.4555 13.6183 14.4305C13.612 14.4242 13.6058 14.418 13.5933 14.4117C13.5933 13.9236 13.587 13.4355 13.5995 12.9474C13.5995 12.8223 13.562 12.8035 13.4493 12.8035C13.2679 12.8097 13.0864 12.8035 12.9049 12.8035C12.8486 12.8035 12.7985 12.8097 12.7985 12.7284C12.8048 12.2215 12.8048 11.7084 12.811 11.2015C12.811 11.1952 12.8173 11.1827 12.8173 11.1765Z" fill="#0F0B47"/>
<path d="M11.1777 7.17777C11.2152 7.12771 11.1964 7.06513 11.1964 7.00881C11.1964 6.05763 11.2027 5.10644 11.1964 4.149C11.1964 4.0301 11.2215 3.99255 11.3466 3.99255C11.7847 3.99881 12.2227 3.99881 12.6608 3.99255C12.7672 3.99255 12.811 4.00507 12.811 4.13023C12.8047 5.10644 12.8047 6.0764 12.811 7.05261C12.811 7.12771 12.8235 7.19654 12.7046 7.19029C12.2227 7.18403 11.7471 7.19029 11.2653 7.18403C11.234 7.19654 11.2027 7.18403 11.1777 7.17777Z" fill="#0F0B47"/>
<path d="M5.58948 12.8036C5.10763 12.8036 4.61952 12.7973 4.13767 12.8036C4.03129 12.8036 4 12.7786 4 12.6659C4.00626 12.2216 4.00626 11.7711 4 11.3205C4 11.2079 4.03755 11.1891 4.14393 11.1891C5.12014 11.1953 6.0901 11.1953 7.06632 11.1891C7.1727 11.1891 7.21025 11.2141 7.21025 11.3268C7.20399 11.7711 7.20399 12.2091 7.21025 12.6534C7.21025 12.7661 7.18522 12.8036 7.06632 12.8036C6.56569 12.7973 6.07759 12.8036 5.58948 12.8036Z" fill="#0F0B47"/>
<path d="M11.1777 11.1702C11.2027 11.214 11.2027 11.2578 11.2027 11.3079C11.2027 11.7585 11.1964 12.2153 11.2027 12.6658C11.2027 12.7785 11.1714 12.8035 11.065 12.8035C10.3579 12.7973 9.65077 12.7973 8.94364 12.8035C8.84977 12.8035 8.80597 12.791 8.80597 12.6784C8.81223 12.2278 8.81223 11.771 8.80597 11.3204C8.80597 11.214 8.84352 11.189 8.93738 11.1953C9.632 11.2015 10.3204 11.1953 11.015 11.1953C11.065 11.1953 11.1276 11.214 11.1777 11.1702Z" fill="#0F0B47"/>
<path d="M12.0038 16.8146C12.0038 16.0449 12.0038 15.2752 11.9975 14.5055C11.9975 14.4304 12.01 14.3991 12.0976 14.3991C12.5982 14.4054 13.0926 14.4054 13.5932 14.4054L13.587 14.3991C13.6433 14.4554 13.637 14.5305 13.6433 14.6056C13.6433 15.2689 13.6433 15.9385 13.6433 16.6019C13.6433 16.6769 13.6433 16.7458 13.587 16.8084L13.5932 16.8021C13.5307 16.8584 13.4618 16.8522 13.3867 16.8522C12.9925 16.8522 12.5982 16.8522 12.204 16.8522C12.1289 16.8584 12.0601 16.8584 12.0038 16.8146Z" fill="#0F0B47"/>
<path d="M11.1777 11.1767C11.2215 11.0515 11.1964 10.9201 11.1964 10.7949C11.1902 10.3944 11.2152 10.0002 11.1839 9.5997L11.1777 9.60596C11.6908 9.60596 12.204 9.5997 12.7171 9.59344C12.8172 9.59344 12.8047 9.65602 12.8047 9.7186C12.8047 10.1566 12.8047 10.5884 12.8047 11.0265C12.8047 11.0765 12.7859 11.1329 12.8172 11.1767L12.8235 11.1704C12.7922 11.1767 12.7672 11.1954 12.7359 11.1954C12.2478 11.1954 11.7534 11.1954 11.2653 11.1954C11.234 11.1954 11.2027 11.1829 11.1777 11.1767C11.1777 11.1767 11.1777 11.1704 11.1777 11.1767Z" fill="#0F0B47"/>
<path d="M18.3992 15.1877C18.8811 15.1877 19.3692 15.1939 19.851 15.1939C19.9637 15.1939 20.0012 15.219 20.0012 15.3379C19.995 15.7822 19.995 16.2327 20.0012 16.677C20.0012 16.7834 19.9699 16.8022 19.8698 16.8022C19.3817 16.8022 18.8936 16.8022 18.4055 16.8085L18.4117 16.8147C18.3554 16.7584 18.3617 16.6833 18.3554 16.6082C18.3554 16.2014 18.3554 15.7947 18.3554 15.3879C18.3554 15.3128 18.3492 15.244 18.3992 15.1877Z" fill="#0F0B47"/>
<path fill-rule="evenodd" clip-rule="evenodd" d="M11.4403 18.3987C11.628 18.3983 11.8159 18.3979 12.0037 18.3979C12.0099 18.3916 12.0162 18.3854 12.0225 18.3728C12.0245 18.3666 12.0273 18.3603 12.0301 18.3541C12.0357 18.3415 12.0412 18.329 12.0412 18.3165C12.0537 17.8409 12.0537 17.3653 12.0412 16.8897C12.0412 16.871 12.035 16.8522 12.0225 16.8334C12.0162 16.8209 12.0099 16.8146 12.0037 16.8084C11.9474 16.8021 11.891 16.7959 11.8347 16.7959C11.6034 16.7959 11.3714 16.7952 11.1392 16.7945C10.674 16.7931 10.2079 16.7917 9.74462 16.7959C9.62572 16.7959 9.60069 16.7646 9.60069 16.6457C9.60382 16.2921 9.60382 15.9386 9.60382 15.585C9.60382 15.2314 9.60382 14.8779 9.60695 14.5243C9.60695 14.4304 9.58817 14.3929 9.48179 14.3929C8.28841 14.3971 7.09781 14.3957 5.90813 14.3943C5.31364 14.3936 4.71938 14.3929 4.12512 14.3929C4.03126 14.3929 4.00623 14.4179 4.00623 14.5118C4.01248 16.3015 4.01248 18.085 4.00623 19.8684C4.00623 19.9748 4.04377 19.9936 4.13764 19.9936H9.47553C9.57566 19.9936 9.60695 19.9748 9.60695 19.8684C9.60382 19.6494 9.60382 19.4304 9.60382 19.2114C9.60382 18.9924 9.60382 18.7733 9.60069 18.5543C9.59443 18.4292 9.62572 18.3916 9.75713 18.3916C10.3156 18.401 10.8775 18.3998 11.4403 18.3987ZM5.60203 16.1264V17.1902V18.2853C5.60203 18.3792 5.63332 18.4042 5.72719 18.4042C6.45309 18.398 7.17273 18.398 7.89864 18.4042C7.98625 18.4042 8.01128 18.3792 8.01128 18.2916C8.00502 17.5657 8.00502 16.8335 8.01128 16.1076C8.01128 16.0138 7.98625 15.995 7.89864 15.995C7.17273 16.0012 6.45309 16.0012 5.72719 15.995C5.61454 15.995 5.60203 16.0325 5.60203 16.1264Z" fill="#0F0B47"/>
<path fill-rule="evenodd" clip-rule="evenodd" d="M11.2027 7.29664C11.2027 7.25909 11.2027 7.21528 11.1777 7.17774C11.1451 7.20567 11.1125 7.20243 11.0773 7.19894C11.0652 7.19774 11.0528 7.19651 11.04 7.19651C10.8241 7.19964 10.6082 7.19964 10.3923 7.19964C10.1764 7.19964 9.96053 7.19964 9.74464 7.20277C9.61948 7.20277 9.59445 7.16522 9.59445 7.04632C9.59758 6.5676 9.59758 6.08888 9.59758 5.61016C9.59758 5.13144 9.59758 4.65272 9.60071 4.174C9.60071 4.04258 9.58193 3.99878 9.438 3.99878C7.67957 4.00504 5.92113 4.00504 4.16269 3.99878C4.03127 3.99878 3.99998 4.03007 4.00624 4.16148C4.0125 5.89489 4.0125 7.63456 4.0125 9.37422C4.0125 9.48583 4.0125 9.54215 4.04066 9.57056C4.06933 9.5995 4.12721 9.5995 4.24404 9.5995H11.1895C11.1878 9.60163 11.186 9.60372 11.1839 9.60576L11.1902 9.5995H11.1895C11.2046 9.57998 11.2038 9.55721 11.2031 9.53385C11.2029 9.52864 11.2027 9.5234 11.2027 9.51815V7.29664ZM7.88612 5.60086H6.80978C6.44682 5.60086 6.08387 5.60086 5.7084 5.5946C5.61454 5.5946 5.58951 5.62589 5.58951 5.71976C5.59368 6.20346 5.59229 6.68439 5.5909 7.16624C5.5902 7.40751 5.58951 7.64901 5.58951 7.89122C5.58951 7.97257 5.60828 8.00386 5.70215 8.00386C6.42805 7.9976 7.16021 7.9976 7.88612 8.00386C7.97373 8.00386 7.99876 7.97882 7.99876 7.89122C7.9925 7.16531 7.9925 6.43315 7.99876 5.70724C8.00501 5.61964 7.96747 5.60086 7.88612 5.60086Z" fill="#0F0B47"/>
<path fill-rule="evenodd" clip-rule="evenodd" d="M19.8573 4.00507H17.204H14.5632C14.4443 4.00507 14.4005 4.02384 14.4005 4.16151C14.4068 5.92621 14.4068 7.69091 14.4005 9.4556C14.4005 9.5745 14.4318 9.60579 14.5507 9.60579C16.3154 9.59953 18.0801 9.59953 19.8448 9.60579C19.9574 9.60579 20.0012 9.58702 20.0012 9.4556C19.995 7.69091 19.995 5.91995 20.0012 4.149C20.0012 4.0301 19.9762 4.00507 19.8573 4.00507ZM16.1089 8.00394H17.1852C17.306 8.00394 17.4267 8.00325 17.5477 8.00255C17.7904 8.00116 18.0339 7.99976 18.2803 8.00394C18.3679 8.00394 18.4055 7.99142 18.4055 7.88504C18.3992 7.15914 18.3992 6.43949 18.4055 5.71359C18.4055 5.61972 18.3742 5.59469 18.2803 5.59469C17.7966 5.59886 17.3157 5.59747 16.8338 5.59608C16.5926 5.59538 16.3511 5.59469 16.1089 5.59469C16.0275 5.59469 15.9962 5.61346 15.9962 5.70733C16.0025 6.43323 16.0025 7.16539 15.9962 7.8913C15.9962 7.98516 16.0213 8.00394 16.1089 8.00394Z" fill="#0F0B47"/>
</svg>
