<svg width="27" height="25" viewBox="0 0 27 25" fill="none" xmlns="http://www.w3.org/2000/svg">
<path d="M3.89018 4.05338V0.674805H6.13366V4.05338H9.49888V6.30576H6.13366V9.68433H3.89018V6.30576H0.524963V4.05338H3.89018ZM7.2554 10.8105V7.43195H10.6206V4.05338H18.4728L20.5256 6.30576H24.0815C25.3154 6.30576 26.325 7.31933 26.325 8.55814V22.0724C26.325 23.3112 25.3154 24.3248 24.0815 24.3248H6.13366C4.89975 24.3248 3.89018 23.3112 3.89018 22.0724V10.8105H7.2554ZM15.1076 20.9462C18.2036 20.9462 20.7163 18.4236 20.7163 15.3153C20.7163 12.207 18.2036 9.68433 15.1076 9.68433C12.0116 9.68433 9.49888 12.207 9.49888 15.3153C9.49888 18.4236 12.0116 20.9462 15.1076 20.9462ZM11.518 15.3153C11.518 17.3086 13.1221 18.9191 15.1076 18.9191C17.0931 18.9191 18.6971 17.3086 18.6971 15.3153C18.6971 13.3219 17.0931 11.7115 15.1076 11.7115C13.1221 11.7115 11.518 13.3219 11.518 15.3153Z" fill="white"/>
</svg>
